<?xml version="1.0" encoding="utf-8"?>
<svg id="master-artboard" viewBox="0 0 64 64" version="1.1" xmlns="http://www.w3.org/2000/svg" x="0px" y="0px" style="enable-background:new 0 0 336 235.2;" width="64px" height="64px"><rect id="ee-background" x="0" y="0" width="64" height="64" style="fill: white; fill-opacity: 0; pointer-events: none;"/><defs><radialGradient id="gradient-0" gradientUnits="objectBoundingBox" cx="0.5" cy="0.5" r="0.5">
                <stop offset="0" style="stop-color: #105b7e"/>
                <stop offset="1" style="stop-color: #041a23"/>
              </radialGradient></defs><g transform="matrix(0.42941176891326904, -0.024178044870495796, 0.024178044870495796, 0.42941176891326904, -137.32672119140625, -124.10073609737513)"><g id="g-1" transform="matrix(1, 0, 0, 1, 0, 0)">
	<g id="g-2">
		<path class="st0" d="M413.7,388.2l7.3-4.2l-7.3-4.2l6.3-5.6l-8-2.7l5.1-6.7l-8.3-1.1l3.7-7.5l-8.4,0.5l2.2-8.1l-8.1,2.2l0.6-8.4&#10;&#9;&#9;&#9;l-7.6,3.7l-1.1-8.3l-6.6,5.1l-2.7-8l-5.6,6.4L371,334l-4.2,7.3l-5.6-6.3l-2.7,8l-6.7-5.2l-1.1,8.3l-7.5-3.7l0.5,8.4l-8.1-2.2&#10;&#9;&#9;&#9;l2.2,8.1l-8.4-0.5l3.7,7.5l-8.3,1.1l5.1,6.7l-8,2.7l6.3,5.5L321,384l7.3,4.2l-6.3,5.6l8,2.7l-5.2,6.7l8.3,1.1l-3.7,7.6l8.4-0.6&#10;&#9;&#9;&#9;l-2.2,8.1l8.1-2.2l-0.5,8.4l7.5-3.7l1.1,8.3l6.7-5.1l2.7,8l5.5-6.3l4.2,7.2l4.2-7.3l5.6,6.3l2.7-8l6.7,5.1l1.1-8.3l7.6,3.7&#10;&#9;&#9;&#9;l-0.6-8.4l8.1,2.2l-2.2-8.1l8.4,0.6l-3.7-7.6l8.3-1.1l-5.1-6.7l8-2.7L413.7,388.2z" style="fill: rgb(171, 170, 161); stroke: rgb(145, 20, 16); stroke-width: 5; stroke-opacity: 0.36;"/>
	</g>
</g></g><g transform="matrix(-0.6439631874585263, 0.006198635435637679, -0.006198635435637679, -0.6439631874585263, 275.4525197707454, 748.855393233336)"><g id="g-7" transform="matrix(1, 0, 0, 1, 0, 0)">
	<g id="g-8">
		<g>
			<path class="st0" d="M373,1175l-4.7-8.1l-6.2,7.1l-3-9l-7.5,5.7l-1.2-9.3l-8.5,4.2l0.6-9.4l-9.1,2.4l2.4-9.1l-9.4,0.6l4.2-8.5&#10;&#9;&#9;&#9;&#9;l-9.4-1.2l5.8-7.5l-8.9-3l7.1-6.2l-8.2-4.7l8.1-4.7l-7.1-6.2l9-3l-5.7-7.5l9.3-1.2l-4.2-8.5l9.4,0.6l-2.4-9.1l9.1,2.4l-0.6-9.4&#10;&#9;&#9;&#9;&#9;l8.5,4.2l1.2-9.4l7.5,5.8l3-8.9l6.2,7.1l4.7-8.2l4.7,8.2l6.2-7.1l3,9l7.4-5.7l1.2,9.4l8.5-4.2l-0.6,9.4l9.1-2.4l-2.4,9.1l9.4-0.6&#10;&#9;&#9;&#9;&#9;l-4.2,8.4l9.3,1.2l-5.7,7.5l8.9,3l-7,6.2l8.2,4.7l-8.1,4.7l7.2,6.1l-9,3l5.7,7.5l-9.3,1.2l4.2,8.5l-9.4-0.6l2.4,9.1l-9.1-2.4&#10;&#9;&#9;&#9;&#9;l0.6,9.4l-8.5-4.2l-1.2,9.3l-7.5-5.7l-3,8.9l-6.2-7L373,1175z M369.3,1156.6l3.7,6.4l3.7-6.4l4.9,5.5l2.4-7.1l5.9,4.5l1-7.3&#10;&#9;&#9;&#9;&#9;l6.6,3.3l-0.5-7.4l7.2,1.9l-1.9-7.2l7.4,0.5l-3.3-6.6l7.3-1l-4.5-5.9l7-2.4l-5.6-4.8l6.5-3.7l-6.4-3.7l5.5-4.9l-7.1-2.4l4.5-5.9&#10;&#9;&#9;&#9;&#9;l-7.3-1l3.3-6.6l-7.4,0.5l1.9-7.1l-7.2,1.9l0.5-7.4l-6.6,3.3l-1-7.3l-5.8,4.5l-2.4-7l-4.9,5.6l-3.7-6.4l-3.7,6.4l-4.9-5.5&#10;&#9;&#9;&#9;&#9;l-2.4,7.1l-5.9-4.6l-1,7.3l-6.6-3.3l0.5,7.4l-7.2-1.9l1.9,7.2l-7.4-0.5l3.3,6.6l-7.3,1l4.5,5.9l-7,2.4l5.6,4.9l-6.4,3.7l6.4,3.7&#10;&#9;&#9;&#9;&#9;l-5.5,4.9l7.1,2.4l-4.6,5.9l7.3,1l-3.3,6.6l7.4-0.5l-1.9,7.1l7.2-1.9l-0.5,7.4l6.6-3.3l1,7.3l5.9-4.5l2.4,7L369.3,1156.6z" style="fill: rgb(8, 6, 65); stroke: rgb(255, 248, 46); stroke-width: 6; paint-order: fill; stroke-opacity: 0.39; fill-opacity: 0.84;"/>
		</g>
	</g>
</g></g><g transform="matrix(0.5245316624641418, -0.006026429124176503, 0.006026429124176503, 0.5245316624641418, -172.72354160511372, -554.6575934641336)"><g id="g-3" transform="matrix(1, 0, 0, 1, 0, 0)">
	<g id="g-4">
		<g>
			<path class="st0" d="M373,1175l-4.7-8.1l-6.2,7.1l-3-9l-7.5,5.7l-1.2-9.3l-8.5,4.2l0.6-9.4l-9.1,2.4l2.4-9.1l-9.4,0.6l4.2-8.5&#10;&#9;&#9;&#9;&#9;l-9.4-1.2l5.8-7.5l-8.9-3l7.1-6.2l-8.2-4.7l8.1-4.7l-7.1-6.2l9-3l-5.7-7.5l9.3-1.2l-4.2-8.5l9.4,0.6l-2.4-9.1l9.1,2.4l-0.6-9.4&#10;&#9;&#9;&#9;&#9;l8.5,4.2l1.2-9.4l7.5,5.8l3-8.9l6.2,7.1l4.7-8.2l4.7,8.2l6.2-7.1l3,9l7.4-5.7l1.2,9.4l8.5-4.2l-0.6,9.4l9.1-2.4l-2.4,9.1l9.4-0.6&#10;&#9;&#9;&#9;&#9;l-4.2,8.4l9.3,1.2l-5.7,7.5l8.9,3l-7,6.2l8.2,4.7l-8.1,4.7l7.2,6.1l-9,3l5.7,7.5l-9.3,1.2l4.2,8.5l-9.4-0.6l2.4,9.1l-9.1-2.4&#10;&#9;&#9;&#9;&#9;l0.6,9.4l-8.5-4.2l-1.2,9.3l-7.5-5.7l-3,8.9l-6.2-7L373,1175z M369.3,1156.6l3.7,6.4l3.7-6.4l4.9,5.5l2.4-7.1l5.9,4.5l1-7.3&#10;&#9;&#9;&#9;&#9;l6.6,3.3l-0.5-7.4l7.2,1.9l-1.9-7.2l7.4,0.5l-3.3-6.6l7.3-1l-4.5-5.9l7-2.4l-5.6-4.8l6.5-3.7l-6.4-3.7l5.5-4.9l-7.1-2.4l4.5-5.9&#10;&#9;&#9;&#9;&#9;l-7.3-1l3.3-6.6l-7.4,0.5l1.9-7.1l-7.2,1.9l0.5-7.4l-6.6,3.3l-1-7.3l-5.8,4.5l-2.4-7l-4.9,5.6l-3.7-6.4l-3.7,6.4l-4.9-5.5&#10;&#9;&#9;&#9;&#9;l-2.4,7.1l-5.9-4.6l-1,7.3l-6.6-3.3l0.5,7.4l-7.2-1.9l1.9,7.2l-7.4-0.5l3.3,6.6l-7.3,1l4.5,5.9l-7,2.4l5.6,4.9l-6.4,3.7l6.4,3.7&#10;&#9;&#9;&#9;&#9;l-5.5,4.9l7.1,2.4l-4.6,5.9l7.3,1l-3.3,6.6l7.4-0.5l-1.9,7.1l7.2-1.9l-0.5,7.4l6.6-3.3l1,7.3l5.9-4.5l2.4,7L369.3,1156.6z" style="fill: rgb(248, 255, 46); stroke: rgb(255, 250, 173); stroke-width: 6; stroke-opacity: 0.68; fill-opacity: 0.42;"/>
		</g>
	</g>
</g></g><g transform="matrix(0.25135809183120733, -0.08151123672723773, 0.08151123672723773, 0.25135809183120733, -154.0196938953007, -219.46793573745265)"><g id="g-11" transform="matrix(1, 0, 0, 1, 0, 0)">
	<g id="g-12">
		<g>
			<path class="st0" d="M373,1175l-4.7-8.1l-6.2,7.1l-3-9l-7.5,5.7l-1.2-9.3l-8.5,4.2l0.6-9.4l-9.1,2.4l2.4-9.1l-9.4,0.6l4.2-8.5&#10;&#9;&#9;&#9;&#9;l-9.4-1.2l5.8-7.5l-8.9-3l7.1-6.2l-8.2-4.7l8.1-4.7l-7.1-6.2l9-3l-5.7-7.5l9.3-1.2l-4.2-8.5l9.4,0.6l-2.4-9.1l9.1,2.4l-0.6-9.4&#10;&#9;&#9;&#9;&#9;l8.5,4.2l1.2-9.4l7.5,5.8l3-8.9l6.2,7.1l4.7-8.2l4.7,8.2l6.2-7.1l3,9l7.4-5.7l1.2,9.4l8.5-4.2l-0.6,9.4l9.1-2.4l-2.4,9.1l9.4-0.6&#10;&#9;&#9;&#9;&#9;l-4.2,8.4l9.3,1.2l-5.7,7.5l8.9,3l-7,6.2l8.2,4.7l-8.1,4.7l7.2,6.1l-9,3l5.7,7.5l-9.3,1.2l4.2,8.5l-9.4-0.6l2.4,9.1l-9.1-2.4&#10;&#9;&#9;&#9;&#9;l0.6,9.4l-8.5-4.2l-1.2,9.3l-7.5-5.7l-3,8.9l-6.2-7L373,1175z M369.3,1156.6l3.7,6.4l3.7-6.4l4.9,5.5l2.4-7.1l5.9,4.5l1-7.3&#10;&#9;&#9;&#9;&#9;l6.6,3.3l-0.5-7.4l7.2,1.9l-1.9-7.2l7.4,0.5l-3.3-6.6l7.3-1l-4.5-5.9l7-2.4l-5.6-4.8l6.5-3.7l-6.4-3.7l5.5-4.9l-7.1-2.4l4.5-5.9&#10;&#9;&#9;&#9;&#9;l-7.3-1l3.3-6.6l-7.4,0.5l1.9-7.1l-7.2,1.9l0.5-7.4l-6.6,3.3l-1-7.3l-5.8,4.5l-2.4-7l-4.9,5.6l-3.7-6.4l-3.7,6.4l-4.9-5.5&#10;&#9;&#9;&#9;&#9;l-2.4,7.1l-5.9-4.6l-1,7.3l-6.6-3.3l0.5,7.4l-7.2-1.9l1.9,7.2l-7.4-0.5l3.3,6.6l-7.3,1l4.5,5.9l-7,2.4l5.6,4.9l-6.4,3.7l6.4,3.7&#10;&#9;&#9;&#9;&#9;l-5.5,4.9l7.1,2.4l-4.6,5.9l7.3,1l-3.3,6.6l7.4-0.5l-1.9,7.1l7.2-1.9l-0.5,7.4l6.6-3.3l1,7.3l5.9-4.5l2.4,7L369.3,1156.6z" style="fill: rgb(166, 171, 73); stroke: rgb(0, 0, 0); stroke-opacity: 0.66; stroke-width: 16;"/>
		</g>
	</g>
</g></g><g transform="matrix(0.02941510826349258, 0, 0, 0.02941510826349258, 21.778844307417643, 24.49864838580497)"><linearGradient id="gradient-1" gradientUnits="userSpaceOnUse" x1="320.3754" y1="478.5583" x2="348.3757" y2="58.5571">
		<stop offset="5.618000e-03" style="stop-color:#9E1F63"/>
		<stop offset="1" style="stop-color:#F26922"/>
	</linearGradient><path class="st1" d="M411,257.7c-11.1-3.1-5.9,23.4-5.9,23.4c-1.3-4.2-6.5-8.5-6.5-8.5c1.3,5.9-3.3,14.3-3.3,14.3&#10;&#9;&#9;s-6.5-12.7-5.5-6.5c1,6.2-2,17.2-2,17.2c0.7-2.6-3.6-7.5-3.6-7.5c-0.3,5.9-6.2,7.8-6.2,7.8c-0.3-4.9-8.1-7.8-8.8,0&#10;&#9;&#9;c-0.7,7.8,13,6.8,13,6.8c-8.8,9.4-22.8-2-27,4.6c-4.2,6.5-32.2,14-36.7,14.3c-4.6,0.3-5.9,4.9-5.9,9.4c0,4.6-1.3,26,2.3,27.6&#10;&#9;&#9;c3.6,1.6,16.6-6.5,16.6-6.5c-0.7,6.2-20.5,12.4-10.1,14.3c10.4,2,12,12,12,12s-8.8-7.2-14.3-4.2c-5.5,2.9-7.8,9.1-12.4,13&#10;&#9;&#9;c-4.6,3.9-14.3,4.9-14.3,4.9c2.3-3.9,7.8-9.1,6.2-9.8c-1.6-0.7-22.8,1-22.8,1c1.2-4.4,22.4-6.8,22.4-6.8c-1.6,0.3-15.3-2-15.3-2&#10;&#9;&#9;c7.2-4.9,23.1-0.7,26-4.2c2.9-3.6-3.3-15-3.9-25.7c-0.7-10.7-3.6-13.7-6.5-14.6c-2.9-1-8.5-8.5-11.1-6.5c-2.6,2,2,6.2,2.9,11.1&#10;&#9;&#9;c1,4.9-21.1,29.9-18.9,32.5c2.3,2.6,13.7,0,13.7,0c-3.6,6.8-16.3,4.2-17.9,5.9c-1.6,1.6,0.7,6.5,0.7,6.5&#10;&#9;&#9;c6.8,3.9,10.4,11.1,10.4,11.1c-1-2.6-13-6.2-13-6.2c-2,4.6-14.3,11.7-21.5,14.3c-7.2,2.6-14,9.8-14,9.8c-0.3-3.9,7.5-13.3,7.5-13.3&#10;&#9;&#9;h-26.3c2.3-5.9,26-8.5,26-8.5l-9.1-2.9c6.8-3.3,22.1-0.7,25.4-2.6c3.3-2,23.4-38.4,20.2-42.3c-3.3-3.9-24.1-16.9-26-23.4&#10;&#9;&#9;c-2-6.5-2.6-13.7-10.4-16.9c-7.8-3.3-44.9-32.5-50.1-41.6c-5.2-9.1-8.5-36.4-14.3-64.4c-5.9-28,23.4-68.9,23.4-68.9&#10;&#9;&#9;s-17.6,2.6-13.7-8.5c3.9-11.1,9.8-7.8,9.8-7.8c-5.9-7.2-19.5-7.8-19.5-7.8c7.8-7.8,15.6-5.9,15.6-5.9s-1.6-9.4,1-12&#10;&#9;&#9;c2.6-2.6,5.5-2,6.5-2.9c1-1,2.3-7.2,4.6-8.1c2.3-1,5.9,2.9,5.9,2.9s1.3-8.5,4.9-9.1c3.6-0.7,6.5,2.9,6.5,2.9s3.9-2.4,6.8-3&#10;&#9;&#9;c2.9-0.6,3.6,4.6,3.6,4.6s3.9-4.2,8.1-1.6c4.2,2.6-2.3,7.2-2.3,7.2s8.1,0,7.5,6.2s-9.4,2.3-10.7,5.2c-1.3,2.9,7.8,4.6,1.6,11.1&#10;&#9;&#9;c0,0,26.3,3.9,29.9,25c3.6,21.1,8.5,61.5,25,71.2c16.6,9.8,37.4,13.7,39,8.1s-10.4-67,43.6-92.7c0,0-8.8,8.8-10.4,14.3&#10;&#9;&#9;c0,0,52.7-54.3,103.1-24.7c0,0-11.4,0-17.2,2.6c0,0,44.2,0,51.4,18.5c0,0-22.8-9.4-38-6.5c0,0,41.3,4.6,50.4,32.8&#10;&#9;&#9;c9.1,28.3,0,39,0,39s-1-44.5-38.4-60.2c0,0,25,17.9,18.5,45.5c0,0-10.1-34.8-38-39c0,0,22.1,25.4,18.5,42.9c0,0-10.7-27-26.7-26&#10;&#9;&#9;c0,0,16.3,15.6,15,27.3c0,0-12.7-15.6-23.7-13c0,0,19.5,8.5,20.2,17.6c0,0-14.6-4.9-20.2,1.3c0,0,20.8-0.1,22.4,6.9&#10;&#9;&#9;c0,0-7.5,1.5-8.5,9s9.8,3.6,13.3,7.5c0,0-12.7,7.5-9.4,14.3c3.3,6.8,13.3,2,15.9,8.1c0,0-15.9,6.5-21.1,16.6&#10;&#9;&#9;C441.9,255.7,420.5,260.3,411,257.7z" style="fill: url('#gradient-1');" transform="matrix(1, 0, 0, 1, 1.8758328224066645e-12, 4.476419235288631e-13)"/></g></svg>